# xmcd CD database file
#
# Track frame offsets:
#	150
#	13557
#	24537
#	34415
#	42460
#	53452
#	64365
#	75010
#	87430
#	99920
#	109535
#	120402
#	130727
#	144582
#	155210
#	167882
#	180522
#	194595
#	210557
#	220395
#
# Disc length: 3112 seconds
#
# Revision: 2
# Processed by: cddbd v1.5.2PL0 Copyright (c) Steve Scherf et al.
# Submitted via: CDex 1.94
#
DISCID=100c2614
DTITLE=James Brown - The Singles # 2.1 1960-1963
DYEAR=1900
DGENRE=Soul
TTITLE0=The Bells
TTITLE1=And I Do Just What I Want
TTITLE2=Hold It
TTITLE3=The Scratch
TTITLE4=Bewildered
TTITLE5=If You Want Me
TTITLE6=Suds
TTITLE7=Sticky
TTITLE8=I Don't Mind
TTITLE9=Love Don't Love Nobody
TTITLE10=Cross Firing
TTITLE11=Night Flying
TTITLE12=Baby, You're Right
TTITLE13=I'll Never, Never Let You Go
TTITLE14=I Love You, Yes I Do
TTITLE15=Just You and Me, Darling
TTITLE16=Lost Someone
TTITLE17=Night Train
TTITLE18=Why Does Everything Happen To Me
TTITLE19=Bewildered (Demo)
EXTD=
EXTT0=
EXTT1=
EXTT2=
EXTT3=
EXTT4=
EXTT5=
EXTT6=
EXTT7=
EXTT8=
EXTT9=
EXTT10=
EXTT11=
EXTT12=
EXTT13=
EXTT14=
EXTT15=
EXTT16=
EXTT17=
EXTT18=
EXTT19=
PLAYORDER=
